<?xml version="1.0" standalone="no"?>
<!DOCTYPE svg PUBLIC "-//W3C//DTD SVG 20010904//EN"
 "http://www.w3.org/TR/2001/REC-SVG-20010904/DTD/svg10.dtd">
<svg version="1.0" xmlns="http://www.w3.org/2000/svg"
 width="512.000000pt" height="512.000000pt" viewBox="0 0 512.000000 512.000000"
 preserveAspectRatio="xMidYMid meet">
<metadata>
Created by potrace 1.14, written by Peter Selinger 2001-2017
</metadata>
<g transform="translate(0.000000,512.000000) scale(0.100000,-0.100000)"
fill="#000000" stroke="none">
<path d="M1870 5105 c-123 -26 -231 -77 -302 -143 -153 -142 -238 -351 -233
-573 3 -116 21 -191 67 -292 53 -114 104 -178 244 -302 430 -382 740 -700 857
-878 31 -48 44 -87 29 -87 -15 0 -155 101 -242 174 -143 120 -474 458 -676
690 -144 166 -221 229 -349 286 -161 73 -357 84 -526 30 -127 -41 -269 -133
-342 -222 -108 -132 -162 -356 -133 -553 5 -28 8 -52 8 -55 2 -17 40 -114 63
-159 34 -68 115 -150 178 -180 l49 -24 -54 -29 c-184 -101 -276 -334 -244
-619 15 -136 82 -275 175 -367 97 -96 255 -180 370 -198 20 -3 39 -8 43 -11
12 -6 177 -5 223 3 119 19 216 57 315 125 61 40 118 97 261 259 188 213 464
496 587 602 47 40 90 78 96 83 54 50 193 142 200 133 16 -20 -66 -144 -189
-284 -115 -132 -410 -421 -590 -579 -241 -211 -283 -258 -345 -383 -107 -217
-102 -479 13 -692 36 -68 113 -165 162 -205 75 -61 199 -116 301 -132 84 -13
254 -7 323 11 77 21 179 68 213 99 64 58 59 79 51 -234 -3 -156 -7 -309 -7
-339 l-1 -55 95 0 95 0 -1 55 c0 30 -4 182 -8 338 l-6 283 42 -34 c102 -83
236 -128 393 -132 209 -5 377 55 499 180 109 111 174 239 201 392 16 90 13
235 -5 305 -31 117 -104 255 -177 334 -15 17 -75 72 -133 124 -345 306 -635
594 -767 761 -81 102 -129 189 -104 189 16 0 129 -79 221 -155 52 -43 178
-162 280 -264 186 -187 290 -298 460 -492 119 -136 215 -206 346 -254 94 -35
129 -40 274 -40 143 1 228 21 340 82 241 131 354 331 351 618 -1 100 -13 167
-47 253 -45 112 -107 186 -203 240 l-53 30 45 20 c66 29 153 122 193 207 82
171 88 404 17 585 -45 113 -97 181 -192 254 -262 200 -607 213 -882 33 -66
-43 -120 -94 -223 -212 -237 -271 -533 -572 -701 -715 -99 -84 -222 -167 -232
-157 -16 17 61 133 176 267 74 87 410 422 525 525 44 39 96 86 117 105 21 19
61 55 90 80 144 123 231 255 274 415 31 114 26 298 -13 420 -48 152 -166 310
-285 379 -198 116 -502 125 -699 19 -68 -36 -159 -126 -183 -180 -10 -24 -22
-43 -25 -43 -3 0 -15 19 -25 43 -43 97 -188 202 -330 237 -67 17 -267 20 -335
5z"/>
</g>
</svg>
